<svg id="Layer_1" xmlns="http://www.w3.org/2000/svg" xmlns:xlink="http://www.w3.org/1999/xlink" viewBox="0 0 79.4 59.5"><style>.st0{clip-path:url(#SVGID_2_);} .st1{fill:#B3B2B1;} .st2{clip-path:url(#SVGID_5_);fill:#FFFFFF;} .st3{display:none;fill:#002453;} .st4{display:none;fill:red;}</style><path d="M2.4 29.8H77v27.4H2.4z"/><defs><path id="SVGID_1_" d="M2.4 2.4H77v27.4H2.4z"/><linearGradient id="Gradient2" gradientUnits="userSpaceOnUse" x1="100%" y1="0%" y2="100%"><stop offset="0%" stop-color="#002453"/><stop offset="10%" stop-color="#032756"/><stop offset="24%" stop-color="#0D305D"/><stop offset="35.6%" stop-color="#36557D"/><stop offset="40%" stop-color="#557096"/><stop offset="49.8%" stop-color="#9AAFCC"/></linearGradient></defs><clipPath id="SVGID_2_"><use xlink:href="#SVGID_1_" overflow="visible"/></clipPath><path class="st0" fill="url(#Gradient2)" d="M2.4 2.4H77v27.4H2.4z"/><path class="st1" d="M0 59.5h79.4V0H0v59.5zm77-2.4H2.4V2.4H77v54.7z"/><g><defs><path id="SVGID_4_" d="M0 0h79.4v59.5H0z"/></defs><clipPath id="SVGID_5_"><use xlink:href="#SVGID_4_" overflow="visible"/></clipPath><path class="st2" d="M14.6 15c-2-.8-2.9-1.3-2.9-2.5 0-.9.8-1.8 2.5-1.8.6 0 1.1 0 2.8.5.1 0 .2 0 .2-.1s.5-1.7.5-1.8c0-.1 0-.2-.1-.2-1.7-.5-2.5-.5-3.3-.5C11 8.6 9 10.5 9 13c0 2.2 1.6 3.5 4.1 4.4 1.9.7 2.7 1.4 2.7 2.5 0 1.2-1 2.1-2.8 2.1-.5 0-1.3 0-3.4-.7-.1 0-.2 0-.2.1s-.5 1.7-.6 1.8c0 .1 0 .2.1.2 2.1.7 3.2.7 3.9.7 3.9 0 5.8-2.1 5.8-4.6-.1-2.2-1.4-3.5-4-4.5m16.8-6.2c0-.1-.1-.1-.2-.1H28c-.1 0-.2 0-.2.1s-4.7 14.6-4.7 14.7c0 .1 0 .3.2.3h2.4c.1 0 .2-.1.2-.2s1-3.4 1-3.4h5.2s1.1 3.4 1.1 3.5c0 .1.1.2.2.2H36c.1 0 .2-.1.2-.2 0-.3-4.8-14.8-4.8-14.9m-4 9.6s1.1-3.8 1.3-4.6c.3-1.2.6-2.2.7-2.7 0-.2.2-.2.2 0 .1.5.4 1.6.7 2.7.4 1.5 1.4 4.6 1.4 4.6h-4.3zM49 16.3c-.2-.4-.2-.6 0-1s3.2-6 3.3-6.2c.1-.2 0-.3-.1-.3h-2.3c-.2 0-.3 0-.3.2-.1.1-1.9 3.7-2.8 5.4-.1.3-.3.3-.4 0-1.1-2.3-2.5-5.2-2.6-5.4-.1-.2-.2-.2-.4-.2h-2.6c-.2 0-.3.1-.2.3.1.2 3.5 6.1 3.6 6.3.2.4.2.7 0 1.1-.2.4-3.7 7-3.8 7.2-.1.2 0 .3.1.3H43c.2 0 .3 0 .3-.2.1-.2 2.1-4.2 3-5.9.1-.2.3-.2.4 0 .5 1 2.9 5.7 3 5.9.1.2.2.2.3.2h2.7c.2 0 .3-.1.2-.3-.1-.4-3.7-7-3.9-7.4m15.2-7.8c-4.3 0-6.8 3.4-6.8 7.6 0 4.5 2.2 8 6.8 8s6.8-3.5 6.8-8c0-4.2-2.5-7.6-6.8-7.6m0 13.4c-3.2 0-3.8-3-3.8-5.8s.8-5.4 3.8-5.4 3.8 2.6 3.8 5.4c.1 2.9-.6 5.8-3.8 5.8M52.3 35.7h-2.2c-.1 0-.2.1-.2.2v5c0 2.2.1 4.9.2 6.9 0 .1 0 .1-.1 0-.2-.6-.8-2.3-2.4-5.7-2.2-4.7-2.8-5.9-3-6.4 0-.1-.1-.1-.2-.1H41c-.1 0-.2.1-.2.2v14.7c0 .1.1.2.2.2h2.1c.1 0 .2-.1.2-.2v-5.2c0-2.4 0-5.4-.2-7.3 0-.1 0-.1.1 0 .2.5.8 2.1 2.6 6.1 2 4.4 3 6.5 3 6.6 0 .1.1.1.2.1h3.1c.1 0 .2-.1.2-.2V35.9c.2-.1.1-.2 0-.2m-20.9.1c0-.1-.1-.1-.2-.1H28c-.1 0-.2 0-.2.1s-4.7 14.6-4.7 14.7c0 .1 0 .3.2.3h2.4c.1 0 .2-.1.2-.2s1-3.4 1-3.4h5.2s1.1 3.4 1.1 3.5c0 .1.1.2.2.2H36c.1 0 .2-.1.2-.2 0-.3-4.8-14.8-4.8-14.9m-4 9.6s1.1-3.8 1.3-4.6c.3-1.2.6-2.2.7-2.7 0-.2.2-.2.2 0 .1.5.4 1.6.7 2.7.4 1.5 1.4 4.6 1.4 4.6h-4.3zm43.5 5.2l-6.3-7.8s5.7-6.7 5.8-6.8c.1-.1 0-.2-.2-.2h-2.4c-.2 0-.2 0-.4.2-.1.1-5.1 6.1-5.2 6.2-.1.1-.3.2-.3-.1V36c0-.1 0-.2-.2-.2h-2.3c-.1 0-.2.1-.2.2v14.7c0 .1.1.2.2.2h2.3c.1 0 .2-.1.2-.2v-7c0-.3.1-.3.3-.1.1.2 5.3 7 5.4 7.2.1.2.2.2.4.2h2.8c.1-.2.1-.3.1-.4m-55.1-7.9c-.1 0-.1-.1 0-.1 1.1-.4 2.9-1.3 2.9-3.6 0-2-1.9-3.2-4.4-3.2h-5c-.1 0-.2.1-.2.2v14.7c0 .1.1.2.2.2h4.5c3.6 0 5.7-1.9 5.7-4.5.1-2.3-1.9-3.6-3.7-3.7m-3.9-5.2h1.5c1.3 0 2.5.6 2.5 2S14.5 42 12.8 42h-.9v-4.5zM13.4 49h-1.5v-5.2h1.5c1.7 0 3.1.8 3.1 2.6 0 1.7-1.4 2.6-3.1 2.6"/></g></svg>